<svg width="30" height="30" viewBox="0 0 30 30" fill="none" xmlns="http://www.w3.org/2000/svg">
<circle cx="15" cy="15" r="15" fill="black"/>
<path d="M18.4053 8.79378H23.1463V9.95099H18.4053V8.79378ZM13.6547 13.3724C14.7027 12.8679 15.2517 12.1004 15.2517 10.9145C15.2517 8.56904 13.5168 8 11.5134 8H6V19.7729H11.6679C13.7925 19.7729 15.7864 18.7448 15.7864 16.3539C15.7864 14.8763 15.0924 13.7836 13.6547 13.3724ZM8.57136 10.0084H10.9835C11.9127 10.0084 12.7468 10.269 12.7468 11.3545C12.7468 12.3539 12.0981 12.7555 11.1784 12.7555H8.57136V10.0084ZM11.3162 17.7741H8.56898V14.532H11.3709C12.5021 14.532 13.2174 15.0078 13.2174 16.2128C13.2174 17.3987 12.3642 17.7741 11.3162 17.7741ZM25 15.6342C25 13.1118 23.5337 11.0102 20.8816 11.0102C18.3031 11.0102 16.5492 12.9635 16.5492 15.5242C16.5492 18.1781 18.2104 20 20.8816 20C22.9039 20 24.2134 19.0843 24.8432 17.1309H22.7922C22.5689 17.8601 21.661 18.2427 20.9552 18.2427C19.5911 18.2427 18.8782 17.4393 18.8782 16.0741H24.9834C24.9905 15.9331 25 15.7848 25 15.6342ZM18.8782 14.5965C18.9518 13.4752 19.6957 12.7747 20.8079 12.7747C21.9771 12.7747 22.5617 13.4656 22.6639 14.5965H18.8782Z" fill="white"/>
</svg>
