<svg width="30" height="30" viewBox="0 0 30 30" fill="none" xmlns="http://www.w3.org/2000/svg">
<circle cx="15" cy="15" r="15" fill="black"/>
<path d="M15.5427 7.20959C15.0996 6.92411 14.5216 6.93068 14.0852 7.22677L7.55571 11.6556C7.20755 11.892 7 12.2786 7 12.6924V17.4643C7 17.8887 7.21845 18.2843 7.58218 18.5183L14.2186 22.7904C14.6524 23.0699 15.2159 23.0699 15.6496 22.7904L22.4178 18.4359C22.781 18.202 23 17.8063 23 17.3819V12.6934C23 12.2695 22.7816 11.8738 22.4183 11.6399L15.5427 7.20959ZM20.5981 12.3786L18.0966 14.0142L15.7508 12.3528L15.7358 9.0852L20.5981 12.3786ZM14.0385 9.08823V12.2861L11.6346 13.9233L9.23687 12.3574L14.0385 9.08823ZM8.57945 13.9334L10.1314 14.9459L8.57945 16.0035V13.9334ZM14.0795 20.7511L9.2379 17.5891L11.6564 15.9429L14.0795 17.5259V20.7511ZM13.1601 14.9197L14.7276 13.852L16.5535 15.0207L14.9351 16.0793L13.1601 14.9197ZM15.7897 20.7511V17.5249L18.1055 16.0136L20.5987 17.6098L15.7897 20.7511ZM21.2898 16.0581L19.646 15.0061L21.2898 13.9324V16.0581Z" fill="white"/>
</svg>
