<svg width="30" height="30" viewBox="0 0 30 30" fill="none" xmlns="http://www.w3.org/2000/svg">
<circle cx="15" cy="15" r="15" fill="black"/>
<path d="M11.1781 20V11.2289H8.17706V20H11.1781ZM9.67797 10.0307C10.7245 10.0307 11.3759 9.35714 11.3759 8.51547C11.3564 7.65482 10.7245 7 9.69783 7C8.67129 7 8 7.65484 8 8.51547C8 9.35718 8.65125 10.0307 9.65838 10.0307H9.67797ZM12.8392 20H15.8402V15.1018C15.8402 14.8397 15.8597 14.5778 15.939 14.3904C16.1559 13.8666 16.6497 13.3242 17.4787 13.3242C18.5647 13.3242 18.9991 14.1285 18.9991 15.3076V19.9999H22V14.9707C22 12.2766 20.5194 11.023 18.5449 11.023C16.926 11.023 16.2152 11.9021 15.8203 12.5008H15.8403V11.2287H12.8392C12.8786 12.0518 12.8392 20 12.8392 20Z" fill="white"/>
</svg>
